<svg width="12" height="12" viewBox="0 0 12 12" fill="none" xmlns="http://www.w3.org/2000/svg">
<path fill-rule="evenodd" clip-rule="evenodd" d="M10.2516 1.74411C9.69805 1.18961 9.03949 0.749929 8.31403 0.450548C7.58857 0.151166 6.81063 -0.00196747 6.02528 1.90831e-05C2.73211 1.90831e-05 0.0512478 2.66749 0.0499167 5.94636C0.0499167 6.99427 0.324791 8.01701 0.847253 8.91919L0 12L3.16738 11.1727C4.04352 11.6473 5.02508 11.8962 6.02262 11.8967H6.02528C9.31778 11.8967 11.9986 9.22919 12 5.95033C12.0022 5.16902 11.8489 4.39502 11.5488 3.67305C11.2487 2.95108 10.8078 2.29547 10.2516 1.74411ZM6.02528 10.8931H6.02328C5.13378 10.8932 4.26065 10.655 3.4955 10.2036L3.31447 10.0963L1.43494 10.5871L1.9361 8.76353L1.8183 8.57673C1.32099 7.78876 1.05772 6.87688 1.0589 5.94636C1.06023 3.22126 3.28785 1.00421 6.02728 1.00421C6.67969 1.00277 7.32591 1.13012 7.92854 1.3789C8.53117 1.62767 9.07824 1.99293 9.53808 2.45354C10.0004 2.91194 10.3668 3.457 10.6162 4.0572C10.8656 4.6574 10.993 5.30084 10.991 5.95033C10.9897 8.67543 8.76204 10.8931 6.02528 10.8931ZM8.7494 7.191C8.59965 7.11615 7.86621 6.75713 7.7291 6.70745C7.59266 6.65777 7.4935 6.63326 7.39366 6.78164C7.29383 6.93001 7.00764 7.26452 6.92045 7.36388C6.83326 7.46324 6.74608 7.47517 6.59699 7.40098C6.44791 7.32679 5.96671 7.1698 5.39633 6.66373C4.9524 6.26961 4.6529 5.78341 4.56571 5.63437C4.47853 5.48533 4.5564 5.40518 4.6316 5.33099C4.69883 5.26475 4.78069 5.15744 4.85523 5.07067C4.92977 4.98389 4.9544 4.92229 5.00432 4.82293C5.05423 4.72357 5.02961 4.6368 4.99167 4.56261C4.9544 4.48776 4.65556 3.75647 4.53111 3.45906C4.41064 3.17091 4.28751 3.20933 4.19566 3.20536C4.10054 3.20149 4.00534 3.19972 3.91014 3.20006C3.83444 3.20198 3.75995 3.21944 3.69135 3.25136C3.62274 3.28328 3.56151 3.32895 3.51147 3.38553C3.37437 3.53457 2.98901 3.89359 2.98901 4.62487C2.98901 5.35616 3.52412 6.06294 3.59866 6.1623C3.6732 6.26166 4.65157 7.76198 6.14907 8.40584C6.50581 8.55885 6.78401 8.65026 7.00032 8.71915C7.35772 8.83242 7.68318 8.81586 7.94075 8.7781C8.2276 8.73571 8.82394 8.41908 8.9484 8.07199C9.07286 7.72489 9.07286 7.42747 9.03559 7.36521C8.99832 7.30294 8.89782 7.26519 8.7494 7.191Z" fill="white"/>
</svg>
